<?xml version="1.0" encoding="UTF-8"?>
<!DOCTYPE svg PUBLIC "-//W3C//DTD SVG 1.1//EN" "http://www.w3.org/Graphics/SVG/1.1/DTD/svg11.dtd">
<svg xmlns="http://www.w3.org/2000/svg" xmlns:xlink="http://www.w3.org/1999/xlink" version="1.1" width="846px" height="194px" viewBox="-0.5 -0.5 846 194" style="background-color: rgb(255, 255, 255);"><defs><linearGradient x1="0%" y1="0%" x2="100%" y2="0%" id="mx-gradient-b9ff92-1-ff0000-1-e-0"><stop offset="0%" style="stop-color: rgb(185, 255, 146); stop-opacity: 1;"/><stop offset="100%" style="stop-color: rgb(255, 0, 0); stop-opacity: 1;"/></linearGradient><style type="text/css">@import url(https://fonts.googleapis.com/css?family=Architects+Daughter);&#xa;</style></defs><g><rect x="16" y="121" width="800" height="60" rx="9" ry="9" fill="url(#mx-gradient-b9ff92-1-ff0000-1-e-0)" stroke="#000000" stroke-width="2" pointer-events="all"/><ellipse cx="96" cy="41" rx="40" ry="40" fill="#000000" stroke="#000000" stroke-width="2" pointer-events="all" transform="translate(2,3)" opacity="0.25"/><ellipse cx="96" cy="41" rx="40" ry="40" fill="#c0e583" stroke="#010203" stroke-width="2" pointer-events="all"/><ellipse cx="256" cy="41" rx="40" ry="40" fill="#000000" stroke="#000000" stroke-width="2" pointer-events="all" transform="translate(2,3)" opacity="0.25"/><ellipse cx="256" cy="41" rx="40" ry="40" fill="#c6d278" stroke="#010203" stroke-width="2" pointer-events="all"/><ellipse cx="416" cy="41" rx="40" ry="40" fill="#000000" stroke="#000000" stroke-width="2" pointer-events="all" transform="translate(2,3)" opacity="0.25"/><ellipse cx="416" cy="41" rx="40" ry="40" fill="#d49e5b" stroke="#010203" stroke-width="2" pointer-events="all"/><ellipse cx="576" cy="41" rx="40" ry="40" fill="#000000" stroke="#000000" stroke-width="2" pointer-events="all" transform="translate(2,3)" opacity="0.25"/><ellipse cx="576" cy="41" rx="40" ry="40" fill="#e85430" stroke="#010203" stroke-width="2" pointer-events="all"/><ellipse cx="736" cy="41" rx="40" ry="40" fill="#000000" stroke="#000000" stroke-width="2" pointer-events="all" transform="translate(2,3)" opacity="0.25"/><ellipse cx="736" cy="41" rx="40" ry="40" fill="#f9150c" stroke="#010203" stroke-width="2" pointer-events="all"/><path d="M 86 41 Q 106 41 106 56 Q 106 71 86 71 Q 96 56 86 41 Z" fill="#000000" stroke="#000000" stroke-width="2" stroke-miterlimit="10" transform="rotate(90,96,56)" pointer-events="all"/><path d="M 396 55.58 L 436 55.58" fill="none" stroke="#010203" stroke-width="2" stroke-miterlimit="10" pointer-events="stroke"/><path d="M 236 55.58 L 244 58.29 Q 252 61 261.75 58.8 L 276 55.58" fill="none" stroke="#010203" stroke-width="2" stroke-miterlimit="10" pointer-events="stroke"/><path d="M 556 55.58 L 572.15 52.73 Q 582 51 589 53.29 L 596 55.58" fill="none" stroke="#010203" stroke-width="2" stroke-miterlimit="10" pointer-events="stroke"/><path d="M 722 61 L 733.06 55.47 Q 742 51 747 56 L 752 61" fill="none" stroke="#010203" stroke-width="2" stroke-miterlimit="10" pointer-events="stroke"/><ellipse cx="81" cy="28.5" rx="5" ry="7.5" fill="#000000" stroke="#010203" stroke-width="2" pointer-events="all"/><ellipse cx="111" cy="28.5" rx="5" ry="7.5" fill="#000000" stroke="#020305" stroke-width="2" pointer-events="all"/><ellipse cx="271" cy="28.5" rx="5" ry="7.5" fill="#000000" stroke="#020305" stroke-width="2" pointer-events="all"/><ellipse cx="241" cy="28.5" rx="5" ry="7.5" fill="#080808" stroke="#010203" stroke-width="2" pointer-events="all"/><ellipse cx="431" cy="28.5" rx="5" ry="7.5" fill="#000000" stroke="#020305" stroke-width="2" pointer-events="all"/><ellipse cx="401" cy="28.5" rx="5" ry="7.5" fill="#080808" stroke="#010203" stroke-width="2" pointer-events="all"/><ellipse cx="591" cy="28.5" rx="5" ry="7.5" fill="#000000" stroke="#020305" stroke-width="2" pointer-events="all"/><ellipse cx="561" cy="28.5" rx="5" ry="7.5" fill="#080808" stroke="#010203" stroke-width="2" pointer-events="all"/><ellipse cx="751" cy="28.5" rx="5" ry="7.5" fill="#000000" stroke="#020305" stroke-width="2" pointer-events="all"/><ellipse cx="721" cy="28.5" rx="5" ry="7.5" fill="#080808" stroke="#010203" stroke-width="2" pointer-events="all"/><ellipse cx="42" cy="151" rx="40" ry="40" fill="#ffffff" stroke="#000000" stroke-width="6" pointer-events="all"/><ellipse cx="416" cy="151" rx="40" ry="40" fill="#ffffff" stroke="#000000" stroke-width="6" pointer-events="all"/><ellipse cx="802" cy="151" rx="40" ry="40" fill="#ffffff" stroke="#000000" stroke-width="6" pointer-events="all"/><ellipse cx="606" cy="151" rx="40" ry="40" fill="#ffffff" stroke="#000000" stroke-width="6" pointer-events="all"/><ellipse cx="206" cy="151" rx="40" ry="40" fill="#ffffff" stroke="#000000" stroke-width="6" pointer-events="all"/><ellipse cx="416" cy="151" rx="20" ry="20" fill="#d49e5b" stroke="none" pointer-events="all"/><ellipse cx="606" cy="151" rx="20" ry="20" fill="#e85430" stroke="none" pointer-events="all"/><ellipse cx="802" cy="151" rx="20" ry="20" fill="#f9150c" stroke="none" pointer-events="all"/><ellipse cx="206" cy="151" rx="20" ry="20" fill="#c6d278" stroke="none" pointer-events="all"/><ellipse cx="42" cy="151" rx="20" ry="20" fill="#c0e583" stroke="none" pointer-events="all"/></g></svg>